<svg xmlns="http://www.w3.org/2000/svg" xmlns:xlink="http://www.w3.org/1999/xlink" width="511.969px" height="511.969px" viewBox="0 0 511.969 511.969">
  <g>
    <polygon points="447.969,335.984 181.531,335.984 69.531,79.984 0,79.984 0,47.984 90.468,47.984 202.468,303.984 447.969,303.984"/>
    <polygon points="511.969,111.984 447.969,271.984 223.984,271.984 160,111.984"/>
    <path d="M287.968,415.984c0,26.5-21.483,48-47.984,48c-26.5,0-47.984-21.5-47.984-48s21.484-48,47.984-48C266.484,367.984,287.968,389.484,287.968,415.984z"/>
    <path d="M447.969,415.984c0,26.5-21.5,48-48,48s-48-21.5-48-48s21.5-48,48-48S447.969,389.484,447.969,415.984z"/>
  </g>
</svg>
